/* XPM */
static char *result[] = {
/* columns rows colors chars-per-pixel */
"64 64 86 1 ",
"  c #000000",
". c #0C0001",
"X c #0D0408",
"o c #120001",
"O c #1C0102",
"+ c #13050C",
"@ c #1A0710",
"# c #1D0812",
"$ c #230103",
"% c #2D0104",
"& c #3B0205",
"* c #3D050D",
"= c #2F0D1D",
"- c #310E1F",
"; c #350F21",
": c #390E20",
"> c #3C1126",
", c #430205",
"< c #4E0306",
"1 c #540307",
"2 c #620308",
"3 c #6C0409",
"4 c #730308",
"5 c #7B040A",
"6 c #46142C",
"7 c #4B152F",
"8 c #511732",
"9 c #5B1A39",
"0 c #621C3D",
"q c #6C1D3F",
"w c #691E41",
"e c #712046",
"r c #762149",
"t c #7B234D",
"y c #83050B",
"u c #8E050C",
"i c #92050C",
"p c #9A050D",
"a c #A3060E",
"s c #AC060E",
"d c #B3060F",
"f c #B9070F",
"g c #BF0710",
"h c #BB0A16",
"j c #C40710",
"k c #CC0711",
"l c #CE0811",
"z c #D10711",
"x c #DB0712",
"c c #D20812",
"v c #DC0812",
"b c #E30813",
"n c #EB0914",
"m c #F40915",
"M c #FC0915",
"N c #FC0B1A",
"B c #F41227",
"V c #F2142C",
"C c #EF1732",
"Z c #E61A3B",
"A c #842552",
"S c #8F2859",
"D c #952A5D",
"F c #9E2D63",
"G c #A22E65",
"H c #AC316B",
"J c #B53370",
"K c #BC3575",
"L c #C71D43",
"P c #E61D41",
"I c #D62B5F",
"U c #D8295C",
"Y c #E82143",
"T c #E02C56",
"R c #C72D64",
"E c #D22E65",
"W c #D12F68",
"Q c #C03677",
"! c #CB3473",
"~ c #CF3973",
"^ c #C5377A",
"/ c #C83779",
"( c #C7387B",
") c #CB3D7B",
"_ c #C4407E",
"` c #CA4282",
/* pixels */
"                                                                ",
"                                                                ",
"                                                                ",
"                                                                ",
"                    Oo                                          ",
"                   2vj1.                                        ",
"                   dMMns,                                       ",
"                  .sMmmmba,o                                    ",
"                  .dmzuxmMbf2$                                  ",
"                  1xMx4nnvmMmz,                                 ",
"                 .fMMkfMny4zMMs                                 ",
"                 OxMmjnMk3anMn5.                                ",
"                 $vmkcMnkbMmj2.                                 ",
"                 ,nmpmmmmmx5O                                   ",
"                 ymbxMMMby%-wSHK^KHSw;                          ",
"               O2bMvMMnu*wJ/((((((((((Jw+                       ",
"              ,vMMMMMM30K((``(((((((``((^9X                     ",
"             ObMMMMMMmL/(`(((((((((((((`((F#                    ",
"             <MMMMbjnMC)(((((((((((((((((`(K;                   ",
"            O4MMMMMhZNV!((((((((((((((((((`(K-                  ",
"         o,pkxMMMNMMVNV!(((^(((((((((((((((`(K#                 ",
"      .%3fnMMnmMMMMNNNP/(r#X+A((((((((((((((`(F                 ",
"     %sbmMMnjdmMMNNMNBW/H     D((((((((((((((`(w                ",
"     yMMnkdjkmmbMMMNCE/(A     e((((((((((((((((K+               ",
"     1nMz,anmmvbMNYU!((((@    J(((((((((((((((`(w               ",
"     .ymmjnMngmMMC!((((((K9>7G((((((((((((((((((J               ",
"      .pMMMbpnMmNU(((((((((((((((((((((((((((((`(;              ",
"       OjMmpzMnNB~((((((((((((((((((((((((((((KHwX              ",
"        &bMnMbbNZ)((((((((((((((((((((((^(KGA6=                 ",
"         4nMMdmmI/(((((((((((((((((((((KG9@X                    ",
"         .uMMnMB!//((((((((((((((((((Jr#                        ",
"          oimMMP///(((((((((((((((^H6X                          ",
"           opmxR(((((((((((((((((^eX                            ",
"            o1&H(((((((((((((((((K=              X              ",
"               D((((((((((((((((((KA;                           ",
"               w(`(((((((((((((((((((D>                         ",
"               ;(`(((((((((((((((((((((J0-                      ",
"                J((((((((((((((((((((((((((G8#                  ",
"                w(`(((((((((((((((((((((((((((`tX               ",
"                +^(((((((((((((((((((((((((((((K+               ",
"                 0(`(((((((((((((((((((((((((`(9                ",
"                 XG(`(((((((((((((((((((((((`(GX                ",
"                  #K(`(((((((((((((((((((((`/K#                 ",
"                   -K(`(((((((((((((((((((`(Q-                  ",
"                    -K(`(((((((((((((((((`(K-                   ",
"                     #G^(`(((((((((((((`((G#                    ",
"                      X9Q((``^((((((``((K0X                     ",
"                        +wJ((/((((((((Jw+                       ",
"                           ;wSHK^KHDw;                          ",
"                                                                ",
"                                                                ",
"                                                                ",
"                                                                ",
"                                                                ",
"                                                                ",
"                                                                ",
"                                                                ",
"                                                                ",
"                                                                ",
"                                                                ",
"                                                                ",
"                                                                ",
"                                                                ",
"                                                                "
};
