/* XPM */
static char *result[] = {
/* columns rows colors chars-per-pixel */
"64 64 89 1 ",
"  c #000000",
". c #0B0000",
"X c #130001",
"o c #1B0102",
"O c #240204",
"+ c #2A0102",
"@ c #340104",
"# c #3E0102",
"$ c #420205",
"% c #4C0000",
"& c #470408",
"* c #4F0409",
"= c #530409",
"- c #59040A",
"; c #630000",
": c #6C0000",
"> c #64050B",
", c #6C050C",
"< c #710000",
"1 c #7C0000",
"2 c #74060D",
"3 c #7A060D",
"4 c #870000",
"5 c #8A0000",
"6 c #950000",
"7 c #9A0000",
"8 c #8E0710",
"9 c #8E0810",
"0 c #920811",
"q c #9C0812",
"w c #A50000",
"e c #AA0000",
"r c #B30000",
"t c #BC0000",
"y c #A30610",
"u c #A30913",
"i c #AD0A14",
"p c #B30A15",
"a c #C10103",
"s c #CB0000",
"d c #D60000",
"f c #DC0000",
"g c #C50B17",
"h c #CC0A16",
"j c #C90B18",
"k c #D50C19",
"l c #DD0C1A",
"z c #E30000",
"x c #EA0000",
"c c #F40000",
"v c #FE0000",
"b c #F2060E",
"n c #FE050C",
"m c #EB0914",
"M c #E40C1B",
"N c #EC0D1C",
"B c #FC0710",
"V c #F40915",
"C c #FC0914",
"Z c #F40E1D",
"A c #FD0E1E",
"S c #FF1323",
"D c #F42D3A",
"F c #FD2D3B",
"G c #FB313F",
"H c #F1505B",
"J c #FD515D",
"K c #FD656E",
"L c #313FFF",
"P c #3744FF",
"I c #3C49FF",
"U c #4350FF",
"Y c #4E5AFF",
"T c #5D68FF",
"R c #7B84FF",
"E c #FE9DA3",
"W c #A6AAFC",
"Q c #FFCDD0",
"! c #CFD2FF",
"~ c #D8DAFF",
"^ c #FEE3E5",
"/ c #E4E6FF",
"( c #E7E9FF",
") c #EDEEFF",
"_ c #F9ECF2",
"` c #FEF4F5",
"' c #F4F5FF",
"] c #FEF7F8",
"[ c #FFFEFE",
/* pixels */
"                                                                ",
"                                                                ",
"                                                                ",
"                          .O&#$#&&@oX                           ",
"                        o2kNZZZZZZZNki=o                        ",
"                       *lZNNZNNNNMMMMZSMq@                      ",
"                    ..3ZNlZAAAAAAAAAZNMNZN0o                    ",
"                   .X,NNZAAAAAAAAAAASZZZMNAl&                   ",
"                  .X9SNZAAAAASAAAAAAAAZZZZNZN3                  ",
"                  .,ZNAAAAASAAAASAAAAAANNMZNMS2                 ",
"                  #NZZAAAAAAAASAASAAAAAAZNMZNMN#                ",
"                 ojZZAAASAAAASAAAAAAZAAAASZNNMZg.               ",
"                 uZNAAAAAAASAAAAAAAAZZAAAAAAZZNA=               ",
"                $ZMZAASSAAAAASSAASAANZAAAAAAZNNAkX              ",
"               .pZkAAJQ`]^EFAAASAASNMDE^]^EFAZNAA=              ",
"               @ZlZAK][[[[[`JAAAAAANH_[[[[[]KZMNApX             ",
"               0ZlAF][_[[[][`FAASAAD][_[[[[[]GNMAN@             ",
"              XhNZAE[WYR'[[][EASAAAE[WYR'[[[[EZMZA>             ",
"              @ZlZA^'ULI![[[[^AAAAA^'UPI![[[[^ZNNA0.            ",
"              ,AkAA][TPY/[[[[]ZZAAA]'TPY/[[[[]ANMAj.            ",
"              pZkAS^[)~([[[[[^AAAAA^[)~([[[[[^ANlANo            ",
"             XkMlAAE[`[[[[[][EAAAAAE[`[[[[[][EANlZZ@            ",
"             @ZlZAAF][`[[[][`DAAAAAF`[][[[`[_FAAMNA,            ",
"             ,ZNAAAAJ`[[[[[`JAAAAAAAJ`[[[[[`JAAANZZ0            ",
"             pZAAAAAAFE^]^EDAAASSAAASFE^]^EFAAAAZZSj.           ",
"            .kNAAAAAAAAAAAZAAAAAAAAAAAAAAAAAAAAASZNlX           ",
"            XNZAAAAAAAAAZNZZAAAAAAASSASASZZAAAAAAANMX           ",
"            +ZNAAAAAAAANMNAAAAAASAAAAAAAAZZAAAAAAANNo           ",
"            &AZAAAAAAAZkMZAAAAAAASAAASAAANNAAAAAAAMNo           ",
"            ,ZZAAAAAAAMlZZAAAAAAAAASAAAANNNZAAAAAAkZ+           ",
"            ,ZSAAAAAAAVZAAAAAAAAAAAAAZNZZNNNAAAAAAlA+           ",
"            ,AZAAAAAAAAAAAAAAAAAZAAZAAAAANMMAAAAAANZO           ",
"            2AAAAAAAAAAAAAAAAAAZNNZAAAAAANMMVAAAAAZA+           ",
"            2ZAAAAAAAAAAAAAAAAAZZAAAAAAAANMMNAAAAAZA@           ",
"            3AAAAAAAAAAAAAAZAAAAAAAAAAAAZNNNZZAAAAZA-           ",
"            2AAAAAAAAAZAAAAZZZZZZZZAAAAZZZZAAAAAAANA2           ",
"            -AZAAAAAAAZAAAAAAZZZZZAZAAZZZAAAAAAAAANA2           ",
"            *ANZAAAAAZAAAAAAAZZZZZAAAZAZAAAAAAAAAZZA-           ",
"            #ASNZZAAAAAZAAAAAAZAAAAAAAZZAAAAAAAAAAAA@           ",
"            oZZNAZAAAAZAAAAAAAAAAAAAAAAAAAAAAAAAAAZZo           ",
"            oNAZAAAZNNAAAAAAAAAZAAAAAAAAAZAAAAAAAANNo           ",
"            XMZAAAAZMMAAAAAAAAZZZZAAAZNZAAAAAAAnnVMMX           ",
"            +MAZAAAANAAZZAAAAVNAAZZAAZlZAAAAAAnvvcNNO           ",
"            #NAZAAAVAAZAZAAAANZAAAAAAZZAAAAAAAnvvvAZo           ",
"            okAAAAAAANAAAAAAZZAZAAAAAAAbmAAAZAAvvvvh            ",
"            .yAABvvvvcnvnCAZZANNAAAAAAnvvBAAnvvvvvva            ",
"            .avvvvvvvvvvvvvBCCbVVnnCAnvvvvvnvvvvvvvx            ",
"            @cvvvvvvvvvvvvvvvvvvvvvvvvvvvvvvvvvvvvvx            ",
"            $cvvvvvvvvvvvvvvvvvvvvvvvvvvvvvvvvvvvvvd            ",
"            %vvvvvvvvvvvvvvvvvvvvvvvvvvvvvvvvvvvvvvr            ",
"            #cvvvvvvvvvvvvvvvvvvvvvvvvvvvvvvvvvvvvvw            ",
"            ocvvvvvvvvvvvvvvvvfvvvvvvvvccvvvvvvvvvvw            ",
"             xvvvvvvvvfvvvvvvc+svvvvvvvz$svvvvzvvvvr            ",
"             svvvvvvv-.svvvvva odvvvvvve  $cvvvszvvd            ",
"             evvvvvs.  +cvvvc@  ocvvvvv%   #xvvvvvvf            ",
"             7vvvvw.    6vvvs    #vvvvc.    +fvvvvvz            ",
"             1vvv6.     Ovvv1     evvvs      o:5cvvx            ",
"             otz<        ;fwX     +xvc@         :cv6            ",
"              .X.                  #4$           +#.            ",
"                                                                ",
"                                                                ",
"                                                                ",
"                                                                ",
"                                                                "
};
