/* XPM */
static char * grass_tile_xpm[] = {
"44 44 3 1",
" 	c #78A158",
".	c #A4C263",
"+	c #C0D470",
"                                            ",
"         ........   .....  ........         ",
"    ...................................     ",
"   ...........+.......+.....++++.........   ",
"  ......+.++++++++.++.++.+++++++.+.......   ",
"   ....++++.++++.++++++++++.++++++++.+...   ",
"   ...+++++++++++++++++.+++++++++++++++...  ",
"  ...+++++++++++++++++++++++++++++++++++..  ",
"  ....++++++++++++++++++++++++++.+++++++... ",
" ...+++++++++++++++++++++++++++++++++.++... ",
" ...+++++++.+++++++++++++++++++++++++++++.  ",
" ...+.++++++++++++++++++++++++++++++++++..  ",
" ..++++++++++++++++++++++++++++++++++++++.. ",
" ..++++++++++++++++++++++++++++++++++++++.. ",
" ...+++++++++++++++++++++++++++++++++++++.. ",
" ..++.+++++++++++++++++++++++++++++++++++.. ",
" ..++++++++++++++++++++++++++++++++.++++... ",
"  ..+++++.+++++++++++++++++++++++++++++...  ",
"  ...+++++++++++++++++++++++++++++++++++..  ",
"  ..+++++++++++++++++++++++++++++++++++...  ",
" ...++.++++++++++++++++++++++++++++++++.... ",
" ..+++++++++++++++++++++++++++++++++++++... ",
" ..++++++++++++++++++++++++++++++++++.++... ",
" ...++++++++++++++++++++++++++++++++++++... ",
"  ..++++++++++++++++++++++++++++++++++++... ",
"  ..++++++++++++++++++++++++++++++.++++.... ",
" ....++.++++++++++++++++++++++++++++++++..  ",
" ...+++++++++++++++++++++++++++++++++.+++.  ",
" ..++++++++++++++++++++++++++++++++++++++.. ",
" ...+++++++++++++++++++++++++++++++++++++.. ",
" ..+++++++++++++++++++++++++++++++++++++..  ",
" ...++++++++++++++++++++++++++++++++++++..  ",
"  ...++++++++++++++++++++++++++++++.+++.... ",
"  ..++++.+++++++++++++++++++++++++++++++... ",
" ....++++++++++++++++++++++++++++++++++.... ",
" ...+++++++.++++++++++++++++++++++++++++..  ",
"  ..++++++++++++.+++++++++.+++++++++++++..  ",
"  ....+++++++++++++++++++++++++++.++.++...  ",
"  ...++++.++++++++++.++++++++++++++++++..   ",
"   ...++.++++++++.++++++.++.++++++++++...   ",
"   ........+.+++....+++......+++.++......   ",
"    ....................................    ",
"         .  ....   .....   .....  ..        ",
"                                            "};
