/* XPM */
static char * house_tile_xpm[] = {
"44 44 14 1",
" 	c #78A158",
".	c #90625D",
"+	c #DCB98A",
"@	c #A4C263",
"#	c #C0D470",
"$	c #8DB15D",
"%	c #C49A6C",
"&	c #67835C",
"*	c #AA7959",
"=	c #E8CFA6",
"-	c #F3E5C2",
";	c #B68962",
">	c #754C60",
",	c #6B4B5B",
"                ...++++++...                ",
"         @@@@...++++++++++++...@@@@         ",
"    @@@@@@...++++++      ++++++...@@@@@     ",
"   @@@@...++++++   #@@@@#   ++++++...@@@@   ",
"  @@...++++++   @$ #@@@@# $@   ++++++...@   ",
"   .++++++    ##@$ @$$$$@ $@##    ++++++.   ",
"   .+++   @@$ ##@$ #@@@@# $@## $@@   +++.@  ",
"  @.%  $ ##@$ @@@$ #@@@@# $@@@ $@## $  %.@  ",
"  @@.&@$ ##@$ ##@$ @$$$$@ $@## $@## $@&.@@@ ",
" @@@#&@$ @@@$ ##@$ #@@@@# $@## $@@@ $@&#@@@ ",
" @@@#&@$ ##@$ @@@$ #@@@@# $@@@ $@## $@&##@  ",
" @@@#&@$ ##@$ ##@$ ****** $@## $@## $@&#@@  ",
" @@##&@$ @@@$ ##***======***## $@@@ $@&##@@ ",
" @@##&@$ ##@$***===------===***$@## $@&##@@ ",
" @@@#&@$ #***===---++++++---===***# $@&##@@ ",
" @@##&@***===---++++++++++++---===***@&##@@ ",
" @@#***===---++++++......++++++---===***@@@ ",
"  @*===---++++++............++++++---===*@  ",
"  @*---++++++..................++++++---*@  ",
"  @.++++++........................++++++.@  ",
" @@.+++...************************...+++.@@ ",
" @@#...;%%%%%%%%%%%%%%%%%%%%%%%%%%%%;...@@@ ",
" @@###>%%%%%%%%%%%%%%%%%%%%%%%%%%%%%%,##@@@ ",
" @@@##>******************************>##@@@ ",
"  @@##>%%%%%%%%%%%%%%%%%%%%%%%%%%%%%%>##@@@ ",
"  @@##>%%%%%%%%%%%%%%%%%%%%%%%%%%%%%%>#@@@@ ",
" @@@@#>%%%>>>%%%%%%%%%%%%%%%%%%>>>%%%>##@@  ",
" @@@##>**>...>*****>>>>>>*****>...>**>###@  ",
" @@###>%%>...>%%%%>......>%%%%>...>%%>###@@ ",
" @@@##>%%>...>%%%>........>%%%>...>%%>###@@ ",
" @@###>%%>%%%>%%%>........>%%%>%%%>%%>##@@  ",
" @@@##>***+++****>........>****+++***>##@@  ",
"  @@@#>%%%%%%%%%%>........>%%%%%%%%%%>#@@@@ ",
"  @@##>%%%%%%%%%%>........>%%%%%%%%%%>##@@@ ",
" @@@@#>%%%%%%%%%%>.******.>%%%%%%%%%%>#@@@@ ",
" @@@###>>>>>>>>>>>*%%%%%%*>>>>>>>>>>>###@@  ",
"  @@#####>;;>###@#.%;;;;%.@####>;;>#####@@  ",
"  @@@@###>%%>#####.%%%%%%.#####>%%>#@##@@@  ",
"  @@@####>%%>#####.%;;;;%.#####>%%>####@@   ",
"   @@@##@>%%>####@.%%%%%%.#@###>%%>###@@@   ",
"   @@@@@@>%%>###@@.%;;;;%.@@@##>%%>@@@@@@   ",
"    @@@@@>%%>@@@@@.%%%%%%.@@@@@>%%>@@@@@    ",
"         @>>@@@@  .%;;;;%. @@@@@>>@@        ",
"                  .%%%%%%.                  "};
