/* XPM */
static char *result[] = {
/* columns rows colors chars-per-pixel */
"64 64 43 1 ",
"  c black",
". c #160000",
"X c #600000",
"o c #9F0000",
"O c #CA0000",
"+ c #E90000",
"@ c #F80000",
"# c #610000",
"$ c #170000",
"% c #3C0000",
"& c #B00000",
"* c #FA0000",
"= c red",
"- c #FB0000",
"; c #B10000",
": c #3E0000",
"> c #210000",
", c #B40000",
"< c #B50000",
"1 c #570000",
"2 c #F20000",
"3 c #7C0000",
"4 c #FD0000",
"5 c #F70000",
"6 c #F10000",
"7 c #FE0000",
"8 c #7B0000",
"9 c #EF0000",
"0 c #E50000",
"q c #7D0000",
"w c #FC0000",
"e c #E70000",
"r c #5A0000",
"t c #3D0000",
"y c #F90000",
"u c #B30000",
"i c #F40000",
"p c #F00000",
"a c #E30000",
"s c #DF0000",
"d c #3F0000",
"f c #EC0000",
"g c #F50000",
/* pixels */
"                                                                ",
"                                                                ",
"                                                                ",
"                                                                ",
"                                                                ",
"                                                                ",
"                                                                ",
"                                                                ",
"                                                                ",
"                                                                ",
"                                                                ",
"                                                                ",
"                                                                ",
"                                                                ",
"                                                                ",
"                          .XoO+@@+Oo#$                          ",
"                        %&*==========-;:                        ",
"                      >,================<>                      ",
"                     12==================21                     ",
"                    3=============456=====78                    ",
"                   3================790=====q                   ",
"                  1====7==============we*====r                  ",
"                 >2===7=================@@===2>                 ",
"                 ,===7===================ww===,                 ",
"                %=========================w====t                ",
"                &===7======================y===u                ",
"               .*==========================7===-.               ",
"               X===4========================y===X               ",
"               o===7========================-===o               ",
"               O============================4===O               ",
"               +================================+               ",
"               @================================@               ",
"               @================================@               ",
"               +============================7===+               ",
"               O============================w===O               ",
"               o============================i===o               ",
"               #===========================7p===#               ",
"               $-==========================2===-$               ",
"                ;=========================wa===,                ",
"                :=========================s====d                ",
"                 <=======================f@===<                 ",
"                 >2=====================ig===2>                 ",
"                  1====================g-====r                  ",
"                   3=================wg=====q                   ",
"                    q==============4*======q                    ",
"                     r2==================2r                     ",
"                      >,================<>                      ",
"                        t,-==========-,d                        ",
"                          .XoO+@@+Oo#$                          ",
"                                                                ",
"                                                                ",
"                                                                ",
"                                                                ",
"                                                                ",
"                                                                ",
"                                                                ",
"                                                                ",
"                                                                ",
"                                                                ",
"                                                                ",
"                                                                ",
"                                                                ",
"                                                                ",
"                                                                "
};
