/* XPM */
static char *result[] = {
/* columns rows colors chars-per-pixel */
"64 64 19 1 ",
"  c black",
". c #060500",
"X c #6C5B00",
"o c #C7A800",
"O c #F2CC00",
"+ c #C8A900",
"@ c #6E5D00",
"# c #070500",
"$ c #1A1600",
"% c #CEAE00",
"& c #FFD800",
"* c #CFAF00",
"= c #1C1700",
"- c #EEC900",
"; c #D0B000",
": c #080600",
"> c #6D5C00",
", c #D1B100",
"< c #1D1800",
/* pixels */
"                                                                ",
"                                                                ",
"                                                                ",
"                                                                ",
"                                                                ",
"                                                                ",
"                                                                ",
"                                                                ",
"                                                                ",
"                                                                ",
"                                                                ",
"                                                                ",
"                                                                ",
"                                                                ",
"                                                                ",
"                                                                ",
"                                                                ",
"                                                                ",
"                                                                ",
"                                                                ",
"                                                                ",
"                                                                ",
"                                                                ",
"                                                                ",
"                                                                ",
"                                                                ",
"                            .XoOO+@#                            ",
"                           $%&&&&&&*=                           ",
"                          .%&-&&&&-&;:                          ",
"                          X&-&&&&&&-&>                          ",
"                          o&&&&&&&&&&o                          ",
"                          O&&&&&&&&&&O                          ",
"                          O&&&&&&&&&&O                          ",
"                          +&&&&&&&&&&+                          ",
"                          @&-&&&&&&-&@                          ",
"                          #*&-&&&&-&,:                          ",
"                           =,&&&&&&,<                           ",
"                            :>oOO+@:                            ",
"                                                                ",
"                                                                ",
"                                                                ",
"                                                                ",
"                                                                ",
"                                                                ",
"                                                                ",
"                                                                ",
"                                                                ",
"                                                                ",
"                                                                ",
"                                                                ",
"                                                                ",
"                                                                ",
"                                                                ",
"                                                                ",
"                                                                ",
"                                                                ",
"                                                                ",
"                                                                ",
"                                                                ",
"                                                                ",
"                                                                ",
"                                                                ",
"                                                                ",
"                                                                "
};
