/* XPM */
static char *result[] = {
/* columns rows colors chars-per-pixel */
"64 64 89 1 ",
"  c black",
". c #040300",
"X c #443900",
"o c #867100",
"O c #B89B00",
"+ c #DDBB00",
"@ c #F2CC00",
"# c #FCD500",
"$ c #DEBC00",
"% c #171300",
"& c #877200",
"* c #E8C400",
"= c #FFD800",
"- c #070500",
"; c #7E6A00",
": c #F6D000",
"> c #FFDA11",
", c #FFD90A",
"< c #7D6900",
"1 c #251F00",
"2 c #D0B000",
"3 c #FFDA0E",
"4 c #272100",
"5 c #3E3400",
"6 c #EFCA00",
"7 c #F0CB00",
"8 c #3F3500",
"9 c #FFDA0D",
"0 c #FFD90C",
"q c #907900",
"w c #231D00",
"e c #090700",
"r c #1C1700",
"t c #A78D00",
"y c #FED700",
"u c #DFBC00",
"i c #030200",
"p c #020100",
"a c #C0A200",
"s c #AB9000",
"d c #8D7700",
"f c #1D1800",
"g c #060500",
"h c #756300",
"j c #4E4200",
"k c #605100",
"l c #D1B100",
"z c #413700",
"x c #D6B608",
"c c #867000",
"v c #0E0C00",
"b c #F5CF00",
"n c #D4B300",
"m c #A98F00",
"M c #584A00",
"N c #261F00",
"B c #070600",
"V c #CBAB00",
"C c #746200",
"Z c #201B00",
"A c #010100",
"S c #E7C300",
"D c #977F00",
"F c #241E00",
"G c #D8B600",
"H c #5A4C00",
"J c #0B0800",
"K c #FDD600",
"L c #917A00",
"P c #100D00",
"I c #F9D200",
"U c #3C3200",
"Y c #010000",
"T c #EBC700",
"R c #A88E00",
"E c #403600",
"W c #BD9F00",
"Q c #4C4000",
"! c #040400",
"~ c #836F00",
"^ c #3D3400",
"/ c #FBD400",
"( c #685800",
") c #211C00",
"_ c #F8D30C",
"` c #9E8500",
"' c #110F00",
"] c #FFD90B",
"[ c #F7D100",
/* pixels */
"                                                                ",
"                                                                ",
"                                                                ",
"                                                                ",
"                                                                ",
"                                                                ",
"                                                                ",
"                                                                ",
"                                                                ",
"                                                                ",
"                                                                ",
"                                                                ",
"                                                                ",
"                                                                ",
"                          .XoO+@#@$OoX.                         ",
"                        %&*===========*&%                       ",
"                      -;:==>,=======,>==:<-                     ",
"                     12==3=============3==24                    ",
"                    56=,=================,=78                   ",
"                   5:=3===================3=:5                  ",
"                  16=9=====================0=71                 ",
"                 -2=3====qwerty=============3=2-                ",
"                 ;=,====ui   pa==============,=<                ",
"                %:======s     d================:%               ",
"                &=3=====#f   gu===============3=&               ",
"               .*========@hjkl==================*.              ",
"               X=>=============================>=z              ",
"               o=,============================@xcv              ",
"               O==========================bnmMNB                ",
"               +=======================bVCZeg.A                 ",
"               @=====================SDFp                       ",
"               #===================GHJ                          ",
"               @=================KLP                            ",
"               $=================IUYA           ig              ",
"               O==================TRE                           ",
"               o=,==================yWQ!                        ",
"               X=>=====================S~^g                     ",
"               .*=========================/2()i                 ",
"                &=3===========================_`'               ",
"                %:=============================:%               ",
"                 ;=,=========================]=<                ",
"                 -2=3=======================3=2-                ",
"                  47=0=====================0=74                 ",
"                   8:=3===================3=[8                  ",
"                    57=,=================]=78                   ",
"                     12==3=============3==24                    ",
"                      -;:==>,=======,>==:<-                     ",
"                        %&*===========*&%                       ",
"                          .XoO+@#@$OoX.                         ",
"                                                                ",
"                                                                ",
"                                                                ",
"                                                                ",
"                                                                ",
"                                                                ",
"                                                                ",
"                                                                ",
"                                                                ",
"                                                                ",
"                                                                ",
"                                                                ",
"                                                                ",
"                                                                ",
"                                                                "
};
