/* XPM */
static char *result[] = {
/* columns rows colors chars-per-pixel */
"64 64 66 1 ",
"  c black",
". c #040300",
"X c #443900",
"o c #867100",
"O c #B89B00",
"+ c #DEBC00",
"@ c #F2CC00",
"# c #FCD500",
"$ c #DDBB00",
"% c #171300",
"& c #877200",
"* c #E8C400",
"= c #FFD800",
"- c #070500",
"; c #7D6900",
": c #F6D000",
"> c #FFDA11",
", c #FFD90A",
"< c #7E6A00",
"1 c #272100",
"2 c #D0B000",
"3 c #FFDA0E",
"4 c #251F00",
"5 c #3F3500",
"6 c #F0CB00",
"7 c #EFCA00",
"8 c #3E3400",
"9 c #FFD90C",
"0 c #FFDA0D",
"q c #FED700",
"w c #A78D00",
"e c #1C1700",
"r c #090700",
"t c #231D00",
"y c #907900",
"u c #C0A200",
"i c #020100",
"p c #030200",
"a c #DFBC00",
"s c #8D7700",
"d c #AB9000",
"f c #FFD90B",
"g c #060500",
"h c #1D1800",
"j c #EDC900",
"k c #D1B100",
"l c #605100",
"z c #4E4200",
"x c #756300",
"c c #433900",
"v c #B09500",
"b c #F9D300",
"n c #E6C300",
"m c #E5C200",
"M c #FDD600",
"N c #DCBA00",
"B c #E0BE00",
"V c #AA8F00",
"C c #231E00",
"Z c #FBD400",
"A c #D6B500",
"S c #756400",
"D c #181400",
"F c #887200",
"G c #504400",
"H c #978000",
/* pixels */
"                                                                ",
"                                                                ",
"                                                                ",
"                                                                ",
"                                                                ",
"                                                                ",
"                                                                ",
"                                                                ",
"                                                                ",
"                                                                ",
"                                                                ",
"                                                                ",
"                                                                ",
"                                                                ",
"                         .XoO+@#@$OoX.                          ",
"                       %&*===========*&%                        ",
"                     -;:==>,=======,>==:<-                      ",
"                    12==3=============3==24                     ",
"                   56=,=================,=78                    ",
"                  8:=3===================3=:8                   ",
"                 46=9=====================0=74                  ",
"                -2=3=============qwerty====3=2-                 ",
"                ;=,==============ui   pa====,=<                 ",
"               %:================s     d======:%                ",
"               &=f===============ag   h#=====3=&                ",
"              .j==================klzx@========*.               ",
"              c===============================>=X               ",
"              vq=q============================,=o               ",
"              b==q==============================O               ",
"              6=================================$               ",
"              n=================================@               ",
"              m========M========================#               ",
"              N===q====q========================@               ",
"              B==q==============================+               ",
"              V==q==============================O               ",
"              Cq==q===========================,=o               ",
"              iZ==M====qq=====================>=X               ",
"               A===qqq=========================*.               ",
"               S=============================3=&                ",
"               Dq=============================:%                ",
"                F===========================,=<                 ",
"                -7=========================3=2-                 ",
"                 Gq=======================9=61                  ",
"                  Hq=3===================3=:5                   ",
"                   56=f=================,=68                    ",
"                    12==3=============3==24                     ",
"                     -;:==>,=======,>==:<-                      ",
"                       %&*===========*&%                        ",
"                         .XoO+@#@$OoX.                          ",
"                                                                ",
"                                                                ",
"                                                                ",
"                                                                ",
"                                                                ",
"                                                                ",
"                                                                ",
"                                                                ",
"                                                                ",
"                                                                ",
"                                                                ",
"                                                                ",
"                                                                ",
"                                                                ",
"                                                                "
};
