/* XPM */
static char *result[] = {
/* columns rows colors chars-per-pixel */
"64 64 66 1 ",
"  c black",
". c #040300",
"X c #443900",
"o c #867100",
"O c #B89B00",
"+ c #DDBB00",
"@ c #F2CC00",
"# c #FCD500",
"$ c #DEBC00",
"% c #171300",
"& c #877200",
"* c #E8C400",
"= c #FFD800",
"- c #070500",
"; c #7E6A00",
": c #F6D000",
"> c #FFDA11",
", c #FFD90A",
"< c #7D6900",
"1 c #251F00",
"2 c #D0B000",
"3 c #FFDA0E",
"4 c #272100",
"5 c #3E3400",
"6 c #EFCA00",
"7 c #F0CB00",
"8 c #3F3500",
"9 c #FFDA0D",
"0 c #FFD90C",
"q c #907900",
"w c #231D00",
"e c #090700",
"r c #1C1700",
"t c #A78D00",
"y c #FED700",
"u c #DFBC00",
"i c #030200",
"p c #020100",
"a c #C0A200",
"s c #AB9000",
"d c #8D7700",
"f c #1D1800",
"g c #060500",
"h c #FFD90B",
"j c #756300",
"k c #4E4200",
"l c #605100",
"z c #D1B100",
"x c #EDC900",
"c c #433900",
"v c #B09500",
"b c #F9D300",
"n c #E6C300",
"m c #FDD600",
"M c #E5C200",
"N c #DCBA00",
"B c #E0BE00",
"V c #AA8F00",
"C c #231E00",
"Z c #FBD400",
"A c #D6B500",
"S c #756400",
"D c #181400",
"F c #887200",
"G c #504400",
"H c #978000",
/* pixels */
"                                                                ",
"                                                                ",
"                                                                ",
"                                                                ",
"                                                                ",
"                                                                ",
"                                                                ",
"                                                                ",
"                                                                ",
"                                                                ",
"                                                                ",
"                                                                ",
"                                                                ",
"                                                                ",
"                          .XoO+@#@$OoX.                         ",
"                        %&*===========*&%                       ",
"                      -;:==>,=======,>==:<-                     ",
"                     12==3=============3==24                    ",
"                    56=,=================,=78                   ",
"                   5:=3===================3=:5                  ",
"                  16=9=====================0=71                 ",
"                 -2=3====qwerty=============3=2-                ",
"                 ;=,====ui   pa==============,=<                ",
"                %:======s     d================:%               ",
"                &=3=====#f   gu===============h=&               ",
"               .*========@jklz==================x.              ",
"               X=>===============================c              ",
"               o=,============================y=yv              ",
"               O==============================y==b              ",
"               +=================================7              ",
"               @=================================n              ",
"               #========================m========M              ",
"               @========================y====y===N              ",
"               $==============================y==B              ",
"               O==============================y==V              ",
"               o=,===========================y==yC              ",
"               X=>=====================yy====m==Zp              ",
"               .*=========================yyy===A               ",
"                &=3=============================S               ",
"                %:=============================yD               ",
"                 ;=,===========================F                ",
"                 -2=3=========================6-                ",
"                  47=0=======================yG                 ",
"                   8:=3===================3=yH                  ",
"                    57=,=================h=78                   ",
"                     12==3=============3==24                    ",
"                      -;:==>,=======,>==:<-                     ",
"                        %&*===========*&%                       ",
"                          .XoO+@#@$OoX.                         ",
"                                                                ",
"                                                                ",
"                                                                ",
"                                                                ",
"                                                                ",
"                                                                ",
"                                                                ",
"                                                                ",
"                                                                ",
"                                                                ",
"                                                                ",
"                                                                ",
"                                                                ",
"                                                                ",
"                                                                "
};
