/* XPM */
static char *result[] = {
/* columns rows colors chars-per-pixel */
"64 64 89 1 ",
"  c black",
". c #040300",
"X c #443900",
"o c #867100",
"O c #B89B00",
"+ c #DEBC00",
"@ c #F2CC00",
"# c #FCD500",
"$ c #DDBB00",
"% c #171300",
"& c #877200",
"* c #E8C400",
"= c #FFD800",
"- c #070500",
"; c #7D6900",
": c #F6D000",
"> c #FFDA11",
", c #FFD90A",
"< c #7E6A00",
"1 c #272100",
"2 c #D0B000",
"3 c #FFDA0E",
"4 c #251F00",
"5 c #3F3500",
"6 c #F0CB00",
"7 c #EFCA00",
"8 c #3E3400",
"9 c #FFD90C",
"0 c #FFDA0D",
"q c #FED700",
"w c #A78D00",
"e c #1C1700",
"r c #090700",
"t c #231D00",
"y c #907900",
"u c #C0A200",
"i c #020100",
"p c #030200",
"a c #DFBC00",
"s c #8D7700",
"d c #AB9000",
"f c #060500",
"g c #1D1800",
"h c #D1B100",
"j c #605100",
"k c #4E4200",
"l c #756300",
"z c #413700",
"x c #0E0C00",
"c c #867000",
"v c #D6B608",
"b c #070600",
"n c #261F00",
"m c #584A00",
"M c #A98F00",
"N c #D4B300",
"B c #F5CF00",
"V c #010100",
"C c #201B00",
"Z c #746200",
"A c #CBAB00",
"S c #241E00",
"D c #977F00",
"F c #E7C300",
"G c #0B0800",
"H c #5A4C00",
"J c #D8B600",
"K c #100D00",
"L c #917A00",
"P c #FDD600",
"I c #010000",
"U c #3C3200",
"Y c #F9D200",
"T c #403600",
"R c #A88E00",
"E c #EBC700",
"W c #040400",
"Q c #4C4000",
"! c #BD9F00",
"~ c #3D3400",
"^ c #836F00",
"/ c #211C00",
"( c #685800",
") c #FBD400",
"_ c #110F00",
"` c #9E8500",
"' c #F8D30C",
"] c #FFD90B",
"[ c #F7D100",
/* pixels */
"                                                                ",
"                                                                ",
"                                                                ",
"                                                                ",
"                                                                ",
"                                                                ",
"                                                                ",
"                                                                ",
"                                                                ",
"                                                                ",
"                                                                ",
"                                                                ",
"                                                                ",
"                                                                ",
"                         .XoO+@#@$OoX.                          ",
"                       %&*===========*&%                        ",
"                     -;:==>,=======,>==:<-                      ",
"                    12==3=============3==24                     ",
"                   56=,=================,=78                    ",
"                  8:=3===================3=:8                   ",
"                 46=9=====================0=74                  ",
"                -2=3=============qwerty====3=2-                 ",
"                ;=,==============ui   pa====,=<                 ",
"               %:================s     d======:%                ",
"               &=3===============af   g#=====3=&                ",
"              .*==================hjkl@========*.               ",
"              z=>=============================>=X               ",
"              xcv@============================,=o               ",
"                bnmMNB==========================O               ",
"                 V.frCZAB=======================$               ",
"                       iSDF=====================@               ",
"                          GHJ===================#               ",
"                            KLP=================@               ",
"              fp           VIUY=================+               ",
"                           TRE==================O               ",
"                        WQ!q==================,=o               ",
"                     f~^F=====================>=X               ",
"                 p/(2)=========================*.               ",
"               _`'===========================3=&                ",
"               %:=============================:%                ",
"                ;=]=========================,=<                 ",
"                -2=3=======================3=2-                 ",
"                 16=9=====================9=61                  ",
"                  5[=3===================3=:5                   ",
"                   56=]=================,=68                    ",
"                    12==3=============3==24                     ",
"                     -;:==>,=======,>==:<-                      ",
"                       %&*===========*&%                        ",
"                         .XoO+@#@$OoX.                          ",
"                                                                ",
"                                                                ",
"                                                                ",
"                                                                ",
"                                                                ",
"                                                                ",
"                                                                ",
"                                                                ",
"                                                                ",
"                                                                ",
"                                                                ",
"                                                                ",
"                                                                ",
"                                                                ",
"                                                                "
};
