/* XPM */
static char *result[] = {
/* columns rows colors chars-per-pixel */
"64 64 26 1 ",
"  c #0041E5",
". c #003DD7",
"X c #0037C2",
"o c #0031AE",
"O c #002DA0",
"+ c #002C9B",
"@ c #003ACC",
"# c #0034B8",
"$ c #002EA4",
"% c #002A94",
"& c #00278A",
"* c #002789",
"= c #002EA1",
"- c #002073",
"; c #001C64",
": c #001B61",
"> c #001E6B",
", c #001750",
"< c #00113C",
"1 c #001038",
"2 c #000E30",
"3 c #00081B",
"4 c #000617",
"5 c #000206",
"6 c #000103",
"7 c black",
/* pixels */
" .XoO++++++++++++++++++++++++++++++++++++++++++++++++++++++OoX. ",
".@#$%&****************************************************&%$#@.",
"X#=*-;::::::::::::::::::::::::::::::::::::::::::::::::::::;-*=#X",
"o$*>,<1111111111111111111111111111111111111111111111111111<,>*$o",
"O%-,23444444444444444444444444444444444444444444444444444432,-%O",
"+&;<35666666666666666666666666666666666666666666666666666653<;&+",
"+*:1467777777777777777777777777777777777777777777777777777641:*+",
"+*:1467777777777777777777777777777777777777777777777777777641:*+",
"+*:1467777777777777777777777777777777777777777777777777777641:*+",
"+*:1467777777777777777777777777777777777777777777777777777641:*+",
"+*:1467777777777777777777777777777777777777777777777777777641:*+",
"+*:1467777777777777777777777777777777777777777777777777777641:*+",
"+*:1467777777777777777777777777777777777777777777777777777641:*+",
"+*:1467777777777777777777777777777777777777777777777777777641:*+",
"+*:1467777777777777777777777777777777777777777777777777777641:*+",
"+*:1467777777777777777777777777777777777777777777777777777641:*+",
"+*:1467777777777777777777777777777777777777777777777777777641:*+",
"+*:1467777777777777777777777777777777777777777777777777777641:*+",
"+*:1467777777777777777777777777777777777777777777777777777641:*+",
"+*:1467777777777777777777777777777777777777777777777777777641:*+",
"+*:1467777777777777777777777777777777777777777777777777777641:*+",
"+*:1467777777777777777777777777777777777777777777777777777641:*+",
"+*:1467777777777777777777777777777777777777777777777777777641:*+",
"+*:1467777777777777777777777777777777777777777777777777777641:*+",
"+*:1467777777777777777777777777777777777777777777777777777641:*+",
"+*:1467777777777777777777777777777777777777777777777777777641:*+",
"+*:1467777777777777777777777777777777777777777777777777777641:*+",
"+*:1467777777777777777777777777777777777777777777777777777641:*+",
"+*:1467777777777777777777777777777777777777777777777777777641:*+",
"+*:1467777777777777777777777777777777777777777777777777777641:*+",
"+*:1467777777777777777777777777777777777777777777777777777641:*+",
"+*:1467777777777777777777777777777777777777777777777777777641:*+",
"+*:1467777777777777777777777777777777777777777777777777777641:*+",
"+*:1467777777777777777777777777777777777777777777777777777641:*+",
"+*:1467777777777777777777777777777777777777777777777777777641:*+",
"+*:1467777777777777777777777777777777777777777777777777777641:*+",
"+*:1467777777777777777777777777777777777777777777777777777641:*+",
"+*:1467777777777777777777777777777777777777777777777777777641:*+",
"+*:1467777777777777777777777777777777777777777777777777777641:*+",
"+*:1467777777777777777777777777777777777777777777777777777641:*+",
"+*:1467777777777777777777777777777777777777777777777777777641:*+",
"+*:1467777777777777777777777777777777777777777777777777777641:*+",
"+*:1467777777777777777777777777777777777777777777777777777641:*+",
"+*:1467777777777777777777777777777777777777777777777777777641:*+",
"+*:1467777777777777777777777777777777777777777777777777777641:*+",
"+*:1467777777777777777777777777777777777777777777777777777641:*+",
"+*:1467777777777777777777777777777777777777777777777777777641:*+",
"+*:1467777777777777777777777777777777777777777777777777777641:*+",
"+*:1467777777777777777777777777777777777777777777777777777641:*+",
"+*:1467777777777777777777777777777777777777777777777777777641:*+",
"+*:1467777777777777777777777777777777777777777777777777777641:*+",
"+*:1467777777777777777777777777777777777777777777777777777641:*+",
"+*:1467777777777777777777777777777777777777777777777777777641:*+",
"+*:1467777777777777777777777777777777777777777777777777777641:*+",
"+*:1467777777777777777777777777777777777777777777777777777641:*+",
"+*:1467777777777777777777777777777777777777777777777777777641:*+",
"+*:1467777777777777777777777777777777777777777777777777777641:*+",
"+*:1467777777777777777777777777777777777777777777777777777641:*+",
"+&;<35666666666666666666666666666666666666666666666666666653<;&+",
"O%-,23444444444444444444444444444444444444444444444444444432,-%O",
"o$*>,<1111111111111111111111111111111111111111111111111111<,>*$o",
"X#=*-;::::::::::::::::::::::::::::::::::::::::::::::::::::;-*=#X",
".@#$%&****************************************************&%$#@.",
" .XoO++++++++++++++++++++++++++++++++++++++++++++++++++++++OoX. "
};
