/* XPM */
static char * water_tile_xpm[] = {
"44 44 2 1",
" 	c #9BD4C3",
".	c #B1E0BE",
"             ...              ...           ",
"                                            ",
"                                            ",
"     .....            ....            ...   ",
"                                            ",
"                                            ",
"...             ....            ....        ",
"                                            ",
"          ..               ..              .",
"                                            ",
"   ...             ....             ...     ",
"              ...             ...           ",
"                                            ",
"                                            ",
"   ....             ...             ..      ",
"                                            ",
"             ...              ...           ",
"                                            ",
"                                            ",
"     .....            ....            ...   ",
"                                            ",
"                                            ",
"...             ....            ....        ",
"                                            ",
"          ..               ..              .",
"                                            ",
"   ...             ....             ...     ",
"              ...             ...           ",
"    ....             ...             ..     ",
"                                            ",
".             ...              ...          ",
"                                            ",
"                                            ",
"      .....            ....            ...  ",
"                                            ",
"                                            ",
"....             ....            ....       ",
"                                            ",
"           ..               ..              ",
"                                            ",
"    ...             ....             ...    ",
".              ...             ...          ",
"                                            ",
"                                            "};
